<svg width="321" height="261" viewBox="0 0 321 261" fill="none" xmlns="http://www.w3.org/2000/svg">
<path d="M114.423 213.059H117.203C117.163 212.392 117.003 211.819 116.723 211.339C116.443 210.846 116.076 210.439 115.623 210.119C115.183 209.786 114.676 209.539 114.103 209.379C113.543 209.219 112.956 209.139 112.343 209.139C111.503 209.139 110.756 209.279 110.103 209.559C109.45 209.839 108.896 210.232 108.443 210.739C107.99 211.232 107.643 211.826 107.403 212.519C107.176 213.199 107.063 213.939 107.063 214.739C107.063 215.512 107.19 216.226 107.443 216.879C107.696 217.519 108.05 218.072 108.503 218.539C108.956 219.006 109.503 219.372 110.143 219.639C110.796 219.892 111.51 220.019 112.283 220.019C113.656 220.019 114.783 219.659 115.663 218.939C116.543 218.219 117.076 217.172 117.263 215.799H114.523C114.43 216.439 114.196 216.952 113.823 217.339C113.463 217.712 112.943 217.899 112.263 217.899C111.823 217.899 111.45 217.799 111.143 217.599C110.836 217.399 110.59 217.146 110.403 216.839C110.23 216.519 110.103 216.166 110.023 215.779C109.943 215.392 109.903 215.012 109.903 214.639C109.903 214.252 109.943 213.866 110.023 213.479C110.103 213.079 110.236 212.719 110.423 212.399C110.623 212.066 110.876 211.799 111.183 211.599C111.49 211.386 111.87 211.279 112.323 211.279C113.536 211.279 114.236 211.872 114.423 213.059ZM121.387 214.599C121.387 214.186 121.427 213.779 121.507 213.379C121.587 212.979 121.721 212.626 121.907 212.319C122.107 212.012 122.367 211.766 122.687 211.579C123.007 211.379 123.407 211.279 123.887 211.279C124.367 211.279 124.767 211.379 125.087 211.579C125.421 211.766 125.681 212.012 125.867 212.319C126.067 212.626 126.207 212.979 126.287 213.379C126.367 213.779 126.407 214.186 126.407 214.599C126.407 215.012 126.367 215.419 126.287 215.819C126.207 216.206 126.067 216.559 125.867 216.879C125.681 217.186 125.421 217.432 125.087 217.619C124.767 217.806 124.367 217.899 123.887 217.899C123.407 217.899 123.007 217.806 122.687 217.619C122.367 217.432 122.107 217.186 121.907 216.879C121.721 216.559 121.587 216.206 121.507 215.819C121.427 215.419 121.387 215.012 121.387 214.599ZM118.547 214.599C118.547 215.426 118.674 216.172 118.927 216.839C119.181 217.506 119.541 218.079 120.007 218.559C120.474 219.026 121.034 219.386 121.687 219.639C122.341 219.892 123.074 220.019 123.887 220.019C124.701 220.019 125.434 219.892 126.087 219.639C126.754 219.386 127.321 219.026 127.787 218.559C128.254 218.079 128.614 217.506 128.867 216.839C129.121 216.172 129.247 215.426 129.247 214.599C129.247 213.772 129.121 213.026 128.867 212.359C128.614 211.679 128.254 211.106 127.787 210.639C127.321 210.159 126.754 209.792 126.087 209.539C125.434 209.272 124.701 209.139 123.887 209.139C123.074 209.139 122.341 209.272 121.687 209.539C121.034 209.792 120.474 210.159 120.007 210.639C119.541 211.106 119.181 211.679 118.927 212.359C118.674 213.026 118.547 213.772 118.547 214.599ZM131.174 209.419V219.759H134.014V213.759C134.014 213.252 134.087 212.846 134.234 212.539C134.381 212.219 134.554 211.979 134.754 211.819C134.967 211.646 135.181 211.532 135.394 211.479C135.621 211.412 135.801 211.379 135.934 211.379C136.387 211.379 136.727 211.459 136.954 211.619C137.194 211.766 137.361 211.966 137.454 212.219C137.561 212.472 137.621 212.752 137.634 213.059C137.647 213.352 137.654 213.652 137.654 213.959V219.759H140.494V213.999C140.494 213.679 140.514 213.366 140.554 213.059C140.607 212.739 140.701 212.459 140.834 212.219C140.981 211.966 141.174 211.766 141.414 211.619C141.667 211.459 141.994 211.379 142.394 211.379C142.794 211.379 143.107 211.446 143.334 211.579C143.574 211.712 143.754 211.892 143.874 212.119C143.994 212.346 144.067 212.612 144.094 212.919C144.121 213.226 144.134 213.552 144.134 213.899V219.759H146.974V212.839C146.974 212.172 146.881 211.606 146.694 211.139C146.507 210.659 146.247 210.272 145.914 209.979C145.581 209.686 145.181 209.472 144.714 209.339C144.247 209.206 143.741 209.139 143.194 209.139C142.474 209.139 141.847 209.312 141.314 209.659C140.794 210.006 140.381 210.406 140.074 210.859C139.794 210.219 139.381 209.772 138.834 209.519C138.301 209.266 137.707 209.139 137.054 209.139C136.374 209.139 135.767 209.286 135.234 209.579C134.714 209.872 134.267 210.286 133.894 210.819H133.854V209.419H131.174ZM154.439 217.899C153.986 217.899 153.599 217.806 153.279 217.619C152.959 217.432 152.699 217.192 152.499 216.899C152.312 216.592 152.172 216.239 152.079 215.839C151.999 215.439 151.959 215.032 151.959 214.619C151.959 214.192 151.999 213.779 152.079 213.379C152.159 212.979 152.292 212.626 152.479 212.319C152.679 212.012 152.932 211.766 153.239 211.579C153.559 211.379 153.952 211.279 154.419 211.279C154.872 211.279 155.252 211.379 155.559 211.579C155.879 211.766 156.139 212.019 156.339 212.339C156.539 212.646 156.679 212.999 156.759 213.399C156.852 213.799 156.899 214.206 156.899 214.619C156.899 215.032 156.859 215.439 156.779 215.839C156.699 216.239 156.559 216.592 156.359 216.899C156.172 217.192 155.919 217.432 155.599 217.619C155.292 217.806 154.906 217.899 154.439 217.899ZM149.219 209.419V223.379H152.059V218.479H152.099C152.446 218.986 152.886 219.372 153.419 219.639C153.966 219.892 154.559 220.019 155.199 220.019C155.959 220.019 156.619 219.872 157.179 219.579C157.752 219.286 158.226 218.892 158.599 218.399C158.986 217.906 159.272 217.339 159.459 216.699C159.646 216.059 159.739 215.392 159.739 214.699C159.739 213.966 159.646 213.266 159.459 212.599C159.272 211.919 158.986 211.326 158.599 210.819C158.212 210.312 157.726 209.906 157.139 209.599C156.552 209.292 155.852 209.139 155.039 209.139C154.399 209.139 153.812 209.266 153.279 209.519C152.746 209.772 152.306 210.179 151.959 210.739H151.919V209.419H149.219ZM163.966 214.599C163.966 214.186 164.006 213.779 164.086 213.379C164.166 212.979 164.299 212.626 164.486 212.319C164.686 212.012 164.946 211.766 165.266 211.579C165.586 211.379 165.986 211.279 166.466 211.279C166.946 211.279 167.346 211.379 167.666 211.579C167.999 211.766 168.259 212.012 168.446 212.319C168.646 212.626 168.786 212.979 168.866 213.379C168.946 213.779 168.986 214.186 168.986 214.599C168.986 215.012 168.946 215.419 168.866 215.819C168.786 216.206 168.646 216.559 168.446 216.879C168.259 217.186 167.999 217.432 167.666 217.619C167.346 217.806 166.946 217.899 166.466 217.899C165.986 217.899 165.586 217.806 165.266 217.619C164.946 217.432 164.686 217.186 164.486 216.879C164.299 216.559 164.166 216.206 164.086 215.819C164.006 215.419 163.966 215.012 163.966 214.599ZM161.126 214.599C161.126 215.426 161.252 216.172 161.506 216.839C161.759 217.506 162.119 218.079 162.586 218.559C163.052 219.026 163.612 219.386 164.266 219.639C164.919 219.892 165.652 220.019 166.466 220.019C167.279 220.019 168.012 219.892 168.666 219.639C169.332 219.386 169.899 219.026 170.366 218.559C170.832 218.079 171.192 217.506 171.446 216.839C171.699 216.172 171.826 215.426 171.826 214.599C171.826 213.772 171.699 213.026 171.446 212.359C171.192 211.679 170.832 211.106 170.366 210.639C169.899 210.159 169.332 209.792 168.666 209.539C168.012 209.272 167.279 209.139 166.466 209.139C165.652 209.139 164.919 209.272 164.266 209.539C163.612 209.792 163.052 210.159 162.586 210.639C162.119 211.106 161.759 211.679 161.506 212.359C161.252 213.026 161.126 213.772 161.126 214.599ZM173.672 209.419V219.759H176.512V214.339C176.512 213.286 176.685 212.532 177.032 212.079C177.379 211.612 177.939 211.379 178.712 211.379C179.392 211.379 179.865 211.592 180.132 212.019C180.399 212.432 180.532 213.066 180.532 213.919V219.759H183.372V213.399C183.372 212.759 183.312 212.179 183.192 211.659C183.085 211.126 182.892 210.679 182.612 210.319C182.332 209.946 181.945 209.659 181.452 209.459C180.972 209.246 180.352 209.139 179.592 209.139C178.992 209.139 178.405 209.279 177.832 209.559C177.259 209.826 176.792 210.259 176.432 210.859H176.372V209.419H173.672ZM192.488 213.479H187.868C187.881 213.279 187.921 213.052 187.988 212.799C188.068 212.546 188.194 212.306 188.368 212.079C188.554 211.852 188.794 211.666 189.088 211.519C189.394 211.359 189.774 211.279 190.228 211.279C190.921 211.279 191.434 211.466 191.768 211.839C192.114 212.212 192.354 212.759 192.488 213.479ZM187.868 215.279H195.328C195.381 214.479 195.314 213.712 195.128 212.979C194.941 212.246 194.634 211.592 194.208 211.019C193.794 210.446 193.261 209.992 192.608 209.659C191.954 209.312 191.188 209.139 190.308 209.139C189.521 209.139 188.801 209.279 188.148 209.559C187.508 209.839 186.954 210.226 186.488 210.719C186.021 211.199 185.661 211.772 185.408 212.439C185.154 213.106 185.028 213.826 185.028 214.599C185.028 215.399 185.148 216.132 185.388 216.799C185.641 217.466 185.994 218.039 186.448 218.519C186.901 218.999 187.454 219.372 188.108 219.639C188.761 219.892 189.494 220.019 190.308 220.019C191.481 220.019 192.481 219.752 193.308 219.219C194.134 218.686 194.748 217.799 195.148 216.559H192.648C192.554 216.879 192.301 217.186 191.888 217.479C191.474 217.759 190.981 217.899 190.408 217.899C189.608 217.899 188.994 217.692 188.568 217.279C188.141 216.866 187.908 216.199 187.868 215.279ZM197.012 209.419V219.759H199.852V214.339C199.852 213.286 200.025 212.532 200.372 212.079C200.719 211.612 201.279 211.379 202.052 211.379C202.732 211.379 203.205 211.592 203.472 212.019C203.739 212.432 203.872 213.066 203.872 213.919V219.759H206.712V213.399C206.712 212.759 206.652 212.179 206.532 211.659C206.425 211.126 206.232 210.679 205.952 210.319C205.672 209.946 205.285 209.659 204.792 209.459C204.312 209.246 203.692 209.139 202.932 209.139C202.332 209.139 201.745 209.279 201.172 209.559C200.599 209.826 200.132 210.259 199.772 210.859H199.712V209.419H197.012ZM212.467 209.419V206.319H209.627V209.419H207.907V211.319H209.627V217.419C209.627 217.939 209.714 218.359 209.887 218.679C210.061 218.999 210.294 219.246 210.587 219.419C210.894 219.592 211.241 219.706 211.627 219.759C212.027 219.826 212.447 219.859 212.887 219.859C213.167 219.859 213.454 219.852 213.747 219.839C214.041 219.826 214.307 219.799 214.547 219.759V217.559C214.414 217.586 214.274 217.606 214.127 217.619C213.981 217.632 213.827 217.639 213.667 217.639C213.187 217.639 212.867 217.559 212.707 217.399C212.547 217.239 212.467 216.919 212.467 216.439V211.319H214.547V209.419H212.467Z" fill="white"/>
<path d="M141.254 139.526L144.514 129.186H141.594L139.694 136.186H139.654L137.894 129.186H135.134L133.414 136.206H133.374L131.474 129.186H128.474L131.754 139.526H134.694L136.454 132.586H136.494L138.334 139.526H141.254ZM148.643 127.586V125.246H145.803V127.586H148.643ZM145.803 129.186V139.526H148.643V129.186H145.803ZM158.219 134.326C158.219 134.753 158.179 135.166 158.099 135.566C158.019 135.966 157.886 136.326 157.699 136.646C157.512 136.953 157.259 137.2 156.939 137.386C156.632 137.573 156.246 137.666 155.779 137.666C155.339 137.666 154.959 137.573 154.639 137.386C154.332 137.186 154.072 136.933 153.859 136.626C153.659 136.306 153.512 135.946 153.419 135.546C153.326 135.146 153.279 134.746 153.279 134.346C153.279 133.92 153.319 133.513 153.399 133.126C153.492 132.726 153.632 132.373 153.819 132.066C154.019 131.76 154.279 131.513 154.599 131.326C154.919 131.14 155.312 131.046 155.779 131.046C156.246 131.046 156.632 131.14 156.939 131.326C157.246 131.513 157.492 131.76 157.679 132.066C157.879 132.36 158.019 132.706 158.099 133.106C158.179 133.493 158.219 133.9 158.219 134.326ZM158.259 138.206V139.526H160.959V125.246H158.119V130.446H158.079C157.759 129.94 157.319 129.56 156.759 129.306C156.212 129.04 155.632 128.906 155.019 128.906C154.259 128.906 153.592 129.06 153.019 129.366C152.446 129.66 151.966 130.053 151.579 130.546C151.206 131.04 150.919 131.613 150.719 132.266C150.532 132.906 150.439 133.573 150.439 134.266C150.439 134.986 150.532 135.68 150.719 136.346C150.919 137.013 151.206 137.606 151.579 138.126C151.966 138.633 152.452 139.04 153.039 139.346C153.626 139.64 154.306 139.786 155.079 139.786C155.759 139.786 156.366 139.666 156.899 139.426C157.446 139.173 157.886 138.766 158.219 138.206H158.259ZM167.926 137.086C167.486 137.086 167.119 136.993 166.826 136.806C166.532 136.62 166.292 136.38 166.106 136.086C165.932 135.793 165.806 135.466 165.726 135.106C165.659 134.733 165.626 134.36 165.626 133.986C165.626 133.6 165.666 133.233 165.746 132.886C165.839 132.526 165.979 132.213 166.166 131.946C166.366 131.666 166.606 131.446 166.886 131.286C167.179 131.126 167.526 131.046 167.926 131.046C168.392 131.046 168.779 131.133 169.086 131.306C169.392 131.48 169.639 131.713 169.826 132.006C170.012 132.3 170.146 132.64 170.226 133.026C170.306 133.4 170.346 133.8 170.346 134.226C170.346 134.6 170.292 134.96 170.186 135.306C170.092 135.64 169.946 135.94 169.746 136.206C169.546 136.473 169.292 136.686 168.986 136.846C168.679 137.006 168.326 137.086 167.926 137.086ZM173.046 138.866V129.186H170.346V130.566H170.306C169.959 129.966 169.526 129.54 169.006 129.286C168.499 129.033 167.906 128.906 167.226 128.906C166.506 128.906 165.866 129.046 165.306 129.326C164.759 129.606 164.299 129.986 163.926 130.466C163.552 130.933 163.266 131.48 163.066 132.106C162.879 132.72 162.786 133.36 162.786 134.026C162.786 134.733 162.866 135.406 163.026 136.046C163.199 136.673 163.466 137.226 163.826 137.706C164.186 138.173 164.646 138.546 165.206 138.826C165.766 139.093 166.432 139.226 167.206 139.226C167.832 139.226 168.426 139.1 168.986 138.846C169.559 138.58 169.999 138.173 170.306 137.626H170.346V138.986C170.359 139.72 170.179 140.326 169.806 140.806C169.446 141.286 168.866 141.526 168.066 141.526C167.559 141.526 167.112 141.42 166.726 141.206C166.339 141.006 166.079 140.64 165.946 140.106H163.126C163.166 140.693 163.326 141.193 163.606 141.606C163.899 142.033 164.259 142.38 164.686 142.646C165.126 142.913 165.606 143.106 166.126 143.226C166.659 143.36 167.179 143.426 167.686 143.426C168.872 143.426 169.819 143.266 170.526 142.946C171.232 142.626 171.772 142.233 172.146 141.766C172.519 141.313 172.759 140.82 172.866 140.286C172.986 139.753 173.046 139.28 173.046 138.866ZM182.292 133.246H177.672C177.686 133.046 177.726 132.82 177.792 132.566C177.872 132.313 177.999 132.073 178.172 131.846C178.359 131.62 178.599 131.433 178.892 131.286C179.199 131.126 179.579 131.046 180.032 131.046C180.726 131.046 181.239 131.233 181.572 131.606C181.919 131.98 182.159 132.526 182.292 133.246ZM177.672 135.046H185.132C185.186 134.246 185.119 133.48 184.932 132.746C184.746 132.013 184.439 131.36 184.012 130.786C183.599 130.213 183.066 129.76 182.412 129.426C181.759 129.08 180.992 128.906 180.112 128.906C179.326 128.906 178.606 129.046 177.952 129.326C177.312 129.606 176.759 129.993 176.292 130.486C175.826 130.966 175.466 131.54 175.212 132.206C174.959 132.873 174.832 133.593 174.832 134.366C174.832 135.166 174.952 135.9 175.192 136.566C175.446 137.233 175.799 137.806 176.252 138.286C176.706 138.766 177.259 139.14 177.912 139.406C178.566 139.66 179.299 139.786 180.112 139.786C181.286 139.786 182.286 139.52 183.112 138.986C183.939 138.453 184.552 137.566 184.952 136.326H182.452C182.359 136.646 182.106 136.953 181.692 137.246C181.279 137.526 180.786 137.666 180.212 137.666C179.412 137.666 178.799 137.46 178.372 137.046C177.946 136.633 177.712 135.966 177.672 135.046ZM190.417 129.186V126.086H187.577V129.186H185.857V131.086H187.577V137.186C187.577 137.706 187.663 138.126 187.837 138.446C188.01 138.766 188.243 139.013 188.537 139.186C188.843 139.36 189.19 139.473 189.577 139.526C189.977 139.593 190.397 139.626 190.837 139.626C191.117 139.626 191.403 139.62 191.697 139.606C191.99 139.593 192.257 139.566 192.497 139.526V137.326C192.363 137.353 192.223 137.373 192.077 137.386C191.93 137.4 191.777 137.406 191.617 137.406C191.137 137.406 190.817 137.326 190.657 137.166C190.497 137.006 190.417 136.686 190.417 136.206V131.086H192.497V129.186H190.417Z" fill="white"/>
<path d="M146.614 65.9333H143.914C143.941 66.6266 144.094 67.2066 144.374 67.6733C144.668 68.1266 145.034 68.4933 145.474 68.7733C145.928 69.0533 146.441 69.2533 147.014 69.3733C147.588 69.4933 148.174 69.5533 148.774 69.5533C149.361 69.5533 149.934 69.4933 150.494 69.3733C151.068 69.2666 151.574 69.0733 152.014 68.7933C152.454 68.5133 152.808 68.1466 153.074 67.6933C153.354 67.2266 153.494 66.6533 153.494 65.9733C153.494 65.4933 153.401 65.0933 153.214 64.7733C153.028 64.4399 152.781 64.1666 152.474 63.9533C152.168 63.7266 151.814 63.5466 151.414 63.4133C151.028 63.2799 150.628 63.1666 150.214 63.0733C149.814 62.9799 149.421 62.8933 149.034 62.8133C148.648 62.7333 148.301 62.6466 147.994 62.5533C147.701 62.4466 147.461 62.3133 147.274 62.1533C147.088 61.9933 146.994 61.7866 146.994 61.5333C146.994 61.3199 147.048 61.1533 147.154 61.0333C147.261 60.8999 147.388 60.7999 147.534 60.7333C147.694 60.6666 147.868 60.6266 148.054 60.6133C148.241 60.5866 148.414 60.5733 148.574 60.5733C149.081 60.5733 149.521 60.6733 149.894 60.8733C150.268 61.0599 150.474 61.4266 150.514 61.9733H153.214C153.161 61.3333 152.994 60.8066 152.714 60.3933C152.448 59.9666 152.108 59.6266 151.694 59.3733C151.281 59.1199 150.808 58.9399 150.274 58.8333C149.754 58.7266 149.214 58.6733 148.654 58.6733C148.094 58.6733 147.548 58.7266 147.014 58.8333C146.481 58.9266 146.001 59.0999 145.574 59.3533C145.148 59.5933 144.801 59.9266 144.534 60.3533C144.281 60.7799 144.154 61.3266 144.154 61.9933C144.154 62.4466 144.248 62.8333 144.434 63.1533C144.621 63.4599 144.868 63.7199 145.174 63.9333C145.481 64.1333 145.828 64.2999 146.214 64.4333C146.614 64.5533 147.021 64.6599 147.434 64.7533C148.448 64.9666 149.234 65.1799 149.794 65.3933C150.368 65.6066 150.654 65.9266 150.654 66.3533C150.654 66.6066 150.594 66.8199 150.474 66.9933C150.354 67.1533 150.201 67.2866 150.014 67.3933C149.841 67.4866 149.641 67.5599 149.414 67.6133C149.201 67.6533 148.994 67.6733 148.794 67.6733C148.514 67.6733 148.241 67.6399 147.974 67.5733C147.721 67.5066 147.494 67.4066 147.294 67.2733C147.094 67.1266 146.928 66.9466 146.794 66.7333C146.674 66.5066 146.614 66.2399 146.614 65.9333ZM160.377 67.4333C159.923 67.4333 159.537 67.3399 159.217 67.1533C158.897 66.9666 158.637 66.7266 158.437 66.4333C158.25 66.1266 158.11 65.7733 158.017 65.3733C157.937 64.9733 157.897 64.5666 157.897 64.1533C157.897 63.7266 157.937 63.3133 158.017 62.9133C158.097 62.5133 158.23 62.1599 158.417 61.8533C158.617 61.5466 158.87 61.2999 159.177 61.1133C159.497 60.9133 159.89 60.8133 160.357 60.8133C160.81 60.8133 161.19 60.9133 161.497 61.1133C161.817 61.2999 162.077 61.5533 162.277 61.8733C162.477 62.1799 162.617 62.5333 162.697 62.9333C162.79 63.3333 162.837 63.7399 162.837 64.1533C162.837 64.5666 162.797 64.9733 162.717 65.3733C162.637 65.7733 162.497 66.1266 162.297 66.4333C162.11 66.7266 161.857 66.9666 161.537 67.1533C161.23 67.3399 160.843 67.4333 160.377 67.4333ZM155.157 58.9533V72.9133H157.997V68.0133H158.037C158.383 68.5199 158.823 68.9066 159.357 69.1733C159.903 69.4266 160.497 69.5533 161.137 69.5533C161.897 69.5533 162.557 69.4066 163.117 69.1133C163.69 68.8199 164.163 68.4266 164.537 67.9333C164.923 67.4399 165.21 66.8733 165.397 66.2333C165.583 65.5933 165.677 64.9266 165.677 64.2333C165.677 63.4999 165.583 62.7999 165.397 62.1333C165.21 61.4533 164.923 60.8599 164.537 60.3533C164.15 59.8466 163.663 59.4399 163.077 59.1333C162.49 58.8266 161.79 58.6733 160.977 58.6733C160.337 58.6733 159.75 58.7999 159.217 59.0533C158.683 59.3066 158.243 59.7133 157.897 60.2733H157.857V58.9533H155.157ZM167.263 62.1333C167.303 61.4666 167.47 60.9133 167.763 60.4733C168.056 60.0333 168.43 59.6799 168.883 59.4133C169.336 59.1466 169.843 58.9599 170.403 58.8533C170.976 58.7333 171.55 58.6733 172.123 58.6733C172.643 58.6733 173.17 58.7133 173.703 58.7933C174.236 58.8599 174.723 58.9999 175.163 59.2133C175.603 59.4266 175.963 59.7266 176.243 60.1133C176.523 60.4866 176.663 60.9866 176.663 61.6133V66.9933C176.663 67.4599 176.69 67.9066 176.743 68.3333C176.796 68.7599 176.89 69.0799 177.023 69.2933H174.143C174.09 69.1333 174.043 68.9733 174.003 68.8133C173.976 68.6399 173.956 68.4666 173.943 68.2933C173.49 68.7599 172.956 69.0866 172.343 69.2733C171.73 69.4599 171.103 69.5533 170.463 69.5533C169.97 69.5533 169.51 69.4933 169.083 69.3733C168.656 69.2533 168.283 69.0666 167.963 68.8133C167.643 68.5599 167.39 68.2399 167.203 67.8533C167.03 67.4666 166.943 67.0066 166.943 66.4733C166.943 65.8866 167.043 65.4066 167.243 65.0333C167.456 64.6466 167.723 64.3399 168.043 64.1133C168.376 63.8866 168.75 63.7199 169.163 63.6133C169.59 63.4933 170.016 63.3999 170.443 63.3333C170.87 63.2666 171.29 63.2133 171.703 63.1733C172.116 63.1333 172.483 63.0733 172.803 62.9933C173.123 62.9133 173.376 62.7999 173.563 62.6533C173.75 62.4933 173.836 62.2666 173.823 61.9733C173.823 61.6666 173.77 61.4266 173.663 61.2533C173.57 61.0666 173.436 60.9266 173.263 60.8333C173.103 60.7266 172.91 60.6599 172.683 60.6333C172.47 60.5933 172.236 60.5733 171.983 60.5733C171.423 60.5733 170.983 60.6933 170.663 60.9333C170.343 61.1733 170.156 61.5733 170.103 62.1333H167.263ZM173.823 64.2333C173.703 64.3399 173.55 64.4266 173.363 64.4933C173.19 64.5466 172.996 64.5933 172.783 64.6333C172.583 64.6733 172.37 64.7066 172.143 64.7333C171.916 64.7599 171.69 64.7933 171.463 64.8333C171.25 64.8733 171.036 64.9266 170.823 64.9933C170.623 65.0599 170.443 65.1533 170.283 65.2733C170.136 65.3799 170.016 65.5199 169.923 65.6933C169.83 65.8666 169.783 66.0866 169.783 66.3533C169.783 66.6066 169.83 66.8199 169.923 66.9933C170.016 67.1666 170.143 67.3066 170.303 67.4133C170.463 67.5066 170.65 67.5733 170.863 67.6133C171.076 67.6533 171.296 67.6733 171.523 67.6733C172.083 67.6733 172.516 67.5799 172.823 67.3933C173.13 67.2066 173.356 66.9866 173.503 66.7333C173.65 66.4666 173.736 66.1999 173.763 65.9333C173.803 65.6666 173.823 65.4533 173.823 65.2933V64.2333Z" fill="white"/>
<path d="M306.057 248.261H15.0646L160.561 14.7889L306.057 248.261Z" stroke="white" stroke-width="5" stroke-linejoin="round"/>
<line x1="116.183" y1="87.7949" x2="206.625" y2="87.7949" stroke="white" stroke-width="5" stroke-linejoin="round"/>
<line x1="64.4804" y1="168.028" x2="256.382" y2="168.028" stroke="white" stroke-width="5" stroke-linejoin="round"/>
</svg>
